<?xml version="1.0" standalone="no"?><!DOCTYPE svg PUBLIC "-//W3C//DTD SVG 1.1//EN" "http://www.w3.org/Graphics/SVG/1.1/DTD/svg11.dtd"><svg class="icon" width="200px" height="200.00px" viewBox="0 0 1024 1024" version="1.1" xmlns="http://www.w3.org/2000/svg"><path fill="#00a9f2" d="M513.5 94C639.697 94 742 196.303 742 322.5S639.697 551 513.5 551c-175.917 0-320.857 132.626-340.286 303.344l-0.334 3.156H512c19.683 0 35.677 15.797 35.995 35.405l0.005 0.595c0 19.683-15.797 35.677-35.405 35.995l-0.595 0.005H135c-19.882 0-36-16.118-36-36 0-179.84 114.53-332.93 274.632-390.309l0.002 0.015C319.71 461.41 285 396.008 285 322.5 285 196.303 387.303 94 513.5 94z m224.224 514.998c19.683 0.135 35.57 16.039 35.757 35.648v0.596L773.323 715H843c19.882 0 36 16.118 36 36 0 19.683-15.797 35.677-35.405 35.995L843 787h-69.842l-0.16 70.24c-0.133 19.882-16.359 35.891-36.24 35.758-19.683-0.133-35.57-16.037-35.757-35.646l-0.001-0.595 0.159-69.757H631c-19.882 0-36-16.118-36-36 0-19.683 15.797-35.677 35.405-35.995L631 715h70.323l0.16-70.242c0.134-19.881 16.36-35.89 36.241-35.76zM513.5 166C427.067 166 357 236.067 357 322.5S427.067 479 513.5 479 670 408.933 670 322.5 599.933 166 513.5 166z"  /></svg>