<?xml version="1.0" standalone="no"?><!DOCTYPE svg PUBLIC "-//W3C//DTD SVG 1.1//EN" "http://www.w3.org/Graphics/SVG/1.1/DTD/svg11.dtd"><svg class="icon" width="200px" height="199.80px" viewBox="0 0 1025 1024" version="1.1" xmlns="http://www.w3.org/2000/svg"><path fill="#00a9f2" d="M302.32811 504.78l-146.944-88.063c-11.776-7.168-27.136-3.328-34.048 8.448-7.168 11.776-3.328 27.136 8.448 34.304l146.944 88.064c11.776 7.168 27.136 3.328 34.048-8.704 7.168-11.802 3.328-27.162-8.448-34.048zM459.00011 1020.878c5.888 1.792 12.544 1.28 18.688-2.304-5.632 3.072-12.288 4.096-18.688 2.304zM302.32811 504.78l-146.944-88.064c-11.776-7.168-27.136-3.328-34.048 8.448-7.168 11.776-3.328 27.136 8.448 34.304l146.944 88.064c11.776 7.168 27.136 3.328 34.048-8.704 7.168-11.802 3.328-27.162-8.448-34.048z m0 0l-146.944-88.064c-11.776-7.168-27.136-3.328-34.048 8.448-7.168 11.776-3.328 27.136 8.448 34.304l146.944 88.064c11.776 7.168 27.136 3.328 34.048-8.704 7.168-11.802 3.328-27.162-8.448-34.048z m0 0l-146.944-88.064c-11.776-7.168-27.136-3.328-34.048 8.448-7.168 11.776-3.328 27.136 8.448 34.304l146.944 88.064c11.776 7.168 27.136 3.328 34.048-8.704 7.168-11.802 3.328-27.162-8.448-34.048z m0 0l-146.944-88.064c-11.776-7.168-27.136-3.328-34.048 8.448-7.168 11.776-3.328 27.136 8.448 34.304l146.944 88.064c11.776 7.168 27.136 3.328 34.048-8.704 7.168-11.802 3.328-27.162-8.448-34.048z m0 0l-146.944-88.064c-11.776-7.168-27.136-3.328-34.048 8.448-7.168 11.776-3.328 27.136 8.448 34.304l146.944 88.064c11.776 7.168 27.136 3.328 34.048-8.704 7.168-11.802 3.328-27.162-8.448-34.048z"  /><path fill="#00a9f2" d="M477.68811 1018.547c-6.144 3.584-12.8 4.096-18.688 2.304 6.4 1.818 13.056 0.794 18.688-2.304zM857.28411 968.678c-14.156 0-25.6-11.443-25.6-25.6V750.9a25.623 25.623 0 0 1 7.962-18.56l127.616-121.37c3.712-3.711 5.888-8.985 5.888-14.796 0-11.904-9.702-21.581-21.606-21.581H641.75811c-11.904 0-21.606 9.677-21.606 21.58 0 5.838 2.227 11.137 6.45 15.36l117.735 121.78a25.554 25.554 0 0 1 7.194 17.792v141.44c0 14.157-11.443 25.6-25.6 25.6s-25.6-11.443-25.6-25.6V761.446L590.09711 647.424c-13.517-13.517-21.145-31.82-21.145-51.251 0-40.115 32.64-72.781 72.806-72.781h309.811c40.14 0 72.807 32.64 72.807 72.78 0 19.431-7.578 37.684-21.35 51.457L882.91011 761.882v181.196c-0.026 14.157-11.469 25.6-25.626 25.6z"  /><path fill="#00a9f2" d="M920.15811 266.394c7.987-5.197 9.498-11.802 10.547-16.538 1.024-9.728-3.584-19.968-13.568-25.088L476.81711 4.608c-7.168-3.584-15.36-3.584-22.528 0L13.97011 224.768C-2.41489 235.52 0.14511 259.328 0.14511 261.888v469.76c0 8.704 4.608 16.896 12.032 21.504 0 0 430.848 260.352 438.272 263.68 15.104 7.424 24.576 5.376 31.744 1.792l143.36-82.944a25.56 25.56 0 0 0 9.216-35.072c-6.912-12.288-22.784-16.384-34.816-9.472l-99.072 57.6v-0.256l-10.24 5.632V511.744L880.27311 290.56l39.885-24.166z m-479.693 245.35v441.088l-390.4-235.264v-427.52l390.4 221.696z m25.088-43.52L78.22511 248.576 465.55311 55.04l387.328 193.536-387.328 219.648z"  /></svg>